<?xml version="1.0" encoding="UTF-8" standalone="no"?>
<!-- Created with Inkscape (http://www.inkscape.org/) -->

<svg
   xmlns:dc="http://purl.org/dc/elements/1.1/"
   xmlns:cc="http://creativecommons.org/ns#"
   xmlns:rdf="http://www.w3.org/1999/02/22-rdf-syntax-ns#"
   xmlns:svg="http://www.w3.org/2000/svg"
   xmlns="http://www.w3.org/2000/svg"
   xmlns:sodipodi="http://sodipodi.sourceforge.net/DTD/sodipodi-0.dtd"
   xmlns:inkscape="http://www.inkscape.org/namespaces/inkscape"
   width="60"
   height="20"
   id="svg2"
   version="1.1"
   inkscape:version="0.48.5 r10040"
   sodipodi:docname="icons.svg">
  <defs
     id="defs4" />
  <sodipodi:namedview
     id="base"
     pagecolor="#ffffff"
     bordercolor="#666666"
     borderopacity="1.0"
     inkscape:pageopacity="0.0"
     inkscape:pageshadow="2"
     inkscape:zoom="11.621206"
     inkscape:cx="39.795689"
     inkscape:cy="8.2173989"
     inkscape:document-units="px"
     inkscape:current-layer="layer1"
     showgrid="true"
     inkscape:window-width="1202"
     inkscape:window-height="766"
     inkscape:window-x="287"
     inkscape:window-y="25"
     inkscape:window-maximized="0"
     inkscape:snap-grids="true">
    <inkscape:grid
       type="xygrid"
       id="grid3004"
       empspacing="10"
       visible="true"
       enabled="true"
       snapvisiblegridlinesonly="true"
       spacingx="1px"
       spacingy="1px" />
  </sodipodi:namedview>
  <metadata
     id="metadata7">
    <rdf:RDF>
      <cc:Work
         rdf:about="">
        <dc:format>image/svg+xml</dc:format>
        <dc:type
           rdf:resource="http://purl.org/dc/dcmitype/StillImage" />
        <dc:title />
      </cc:Work>
    </rdf:RDF>
  </metadata>
  <g
     inkscape:label="Ebene 1"
     inkscape:groupmode="layer"
     id="layer1">
    <path
       style="fill:none;stroke:#ff0000;stroke-width:0.1;stroke-linecap:butt;stroke-linejoin:miter;stroke-opacity:1"
       d="M 10.635802,20 1,20 C 0.18106886,19.909466 -0.15226447,19.576132 0,19 L 0,1 C -0.0564385,0.27689483 0.46216401,0.12883068 1,0 c 0.268918,-0.06441534 18,0 18,0 0.550057,0.07326475 1.047108,0.21013731 1,1 l 0,18 c -0.168121,0.388404 -0.144399,0.840756 -1,1 l -5.182099,0 0,-7.726851 2.591822,0 0.362653,-3.0910498 -2.954475,0 0,-2.1820992 c 0,-0.6882612 0.575771,-1 1.182099,-1 l 2,0 0,-3 -3,0 c -1.935229,0 -3.364198,1.4232142 -3.364198,3.8225372 l 0,2.359562 -2.635802,0 0,3.0910498 2.635802,0 z"
       id="path3867"
       inkscape:connector-curvature="0"
       sodipodi:nodetypes="ccccscccccccccssccssccccc" />
    <path
       style="fill:none;stroke:#ff0000;stroke-width:0.10437671;stroke-linecap:butt;stroke-linejoin:miter;stroke-opacity:1"
       d="m 0.799384,16.2969 c 1.566759,0.2708 3.264077,0.7983 5.50394,-1.3554 C 4.130942,14.714 3.680924,13.5022 2.976315,12.436 3.880971,12.527 4.467318,12.426 4.824654,12.1895 3.035492,11.9874 1.892015,10.9244 1.74409,8.5339 2.278338,8.9047 2.756969,9.0531 3.181686,8.9857 1.598856,7.4689 1.341827,5.7791 2.278054,3.9336 3.670147,6.3232 6.914232,7.0923 10,8 9.745021,2.8146 14.489327,2.4669 16.325423,4.3854 17.380297,4.6195 17.996523,3.9762 18.7488,3.605 18.77344,4.4009 17.885207,5.0447 17.311204,5.7409 17.982082,5.6385 18.65296,5.4858 19.323838,5.1658 18.874001,5.6849 18.529762,6.1406 17.557649,6.9731 17.042943,17.269 7.430817,20.7549 0.799384,16.2969 z"
       id="Twitter"
       inkscape:connector-curvature="0"
       sodipodi:nodetypes="cccccccccccccc"
       inkscape:label="#twitter" />
  </g>
</svg>
